<?xml version="1.0" standalone="no"?><!DOCTYPE svg PUBLIC "-//W3C//DTD SVG 1.1//EN" "http://www.w3.org/Graphics/SVG/1.1/DTD/svg11.dtd"><svg t="1721990132056" class="icon" viewBox="0 0 1024 1024" version="1.1" xmlns="http://www.w3.org/2000/svg" p-id="6332" xmlns:xlink="http://www.w3.org/1999/xlink" width="200" height="200"><path d="M860.9 63.9H293.1c-43 0-79.6 27.1-93.7 65.1h597.1c55.2 0 100 44.8 100 100v596.2c37.7-14.3 64.4-50.8 64.4-93.5V163.9c0-55.3-44.7-100-100-100z" fill="#114fe7" p-id="6333"></path><path d="M733 191.8H164.6c-55.2 0-100 44.8-100 100v568.4c0 55.2 44.8 100 100 100H733c55.2 0 100-44.8 100-100V291.8c0-55.2-44.7-100-100-100z m-121.8 279c0 17.7-14.3 32-32 32s-32-14.3-32-32V455h-66v241.7h14.4c17.7 0 32 14.3 32 32s-14.3 32-32 32h-91.9c-17.7 0-32-14.3-32-32s14.3-32 32-32h13.6V455h-65.1v15.8c0 17.7-14.3 32-32 32s-32-14.3-32-32v-38.2c0-22.9 18.2-41.6 40.6-41.6h242c22.4 0 40.6 18.6 40.6 41.6v38.2z" fill="#114fe7" p-id="6334"></path></svg>